<svg width="132" height="48" viewBox="0 0 132 48" fill="none" xmlns="http://www.w3.org/2000/svg">
<g clip-path="url(#clip0_6219_30945)">
<path d="M91.734 16H79.1016V17.7782H91.734V16Z" fill="#030335"/>
<path d="M79.1016 24.8871V30.2177V32.0001H91.7299V30.2177H80.8798V24.8871H91.7299V23.1089H79.1016V24.8871Z" fill="#030335"/>
<path d="M66.8636 17.7782H72.2887V16H59.6562V17.7782H65.0813H66.8636Z" fill="#030335"/>
<path d="M66.8593 23.1089H65.0811V31.996H66.8593V23.1089Z" fill="#030335"/>
<path d="M129.795 16V23.1088H120.719V16H118.94V23.1088V24.8871V32H120.719V24.8871H129.795V32H131.573V24.8871V23.1088V16H129.795Z" fill="#030335"/>
<path d="M12.6334 16H0.000976562V17.7782H12.6334V16Z" fill="#030335"/>
<path d="M0.000976562 23.1089V24.8871V32.0001H1.77921V24.8871H12.6334V23.1089H1.77921H0.000976562Z" fill="#030335"/>
<path d="M46.1393 16H41.5068V17.7782H46.1393C49.5767 17.7782 52.361 20.5626 52.361 24C52.361 27.4374 49.5767 30.2218 46.1393 30.2218H41.5068V32H46.1393C50.5582 32 54.1393 28.4189 54.1393 24C54.1393 19.5811 50.5582 16 46.1393 16Z" fill="#030335"/>
<path d="M106.132 32H110.764V30.2218H106.132C102.694 30.2218 99.9101 27.4374 99.9101 24C99.9101 20.5626 102.694 17.7782 106.132 17.7782H110.764V16H106.132C101.713 16 98.1318 19.5811 98.1318 24C98.1318 28.4189 101.713 32 106.132 32Z" fill="#030335"/>
<path d="M33.442 30.2178H20.8096V31.996H33.442V30.2178Z" fill="#004680"/>
<path d="M31.6638 17.7782H33.442V16H20.8096V17.7782H27.4584H31.6638Z" fill="#C01A32"/>
<path d="M33.442 24.8871V23.1089H31.6638H27.4584H20.8096V24.8871H33.442Z" fill="#89ABE3"/>
</g>
<defs>
<clipPath id="clip0_6219_30945">
<rect width="131.573" height="16" fill="white" transform="translate(0 16)"/>
</clipPath>
</defs>
</svg>
